<svg xmlns="http://www.w3.org/2000/svg" viewBox="0 0 1920 120" preserveAspectRatio="xMidYMid slice">
  <!-- Cosmic Nebula Background for Masthead -->
  <!-- 星雲漸層背景 -->
  <defs>
    <!-- 星雲漸層 -->
    <linearGradient id="nebulaGradient" x1="0%" y1="0%" x2="100%" y2="100%">
      <stop offset="0%" style="stop-color:#0F0F12;stop-opacity:0.98" />
      <stop offset="25%" style="stop-color:#1A1B2E;stop-opacity:0.95" />
      <stop offset="50%" style="stop-color:#0F0F12;stop-opacity:0.98" />
      <stop offset="75%" style="stop-color:#1A1B2E;stop-opacity:0.95" />
      <stop offset="100%" style="stop-color:#0F0F12;stop-opacity:0.98" />
    </linearGradient>
    
    <!-- 星光閃爍濾鏡 -->
    <filter id="glow">
      <feGaussianBlur stdDeviation="2" result="coloredBlur"/>
      <feMerge>
        <feMergeNode in="coloredBlur"/>
        <feMergeNode in="SourceGraphic"/>
      </feMerge>
    </filter>
    
    <!-- 星雲雲霧 -->
    <radialGradient id="cosmicCloud1" cx="20%" cy="50%">
      <stop offset="0%" style="stop-color:#4A90B8;stop-opacity:0.3" />
      <stop offset="100%" style="stop-color:#0F0F12;stop-opacity:0" />
    </radialGradient>
    
    <radialGradient id="cosmicCloud2" cx="80%" cy="50%">
      <stop offset="0%" style="stop-color:#9B59B6;stop-opacity:0.2" />
      <stop offset="100%" style="stop-color:#0F0F12;stop-opacity:0" />
    </radialGradient>
    
    <radialGradient id="cosmicCloud3" cx="50%" cy="50%">
      <stop offset="0%" style="stop-color:#D4A017;stop-opacity:0.15" />
      <stop offset="100%" style="stop-color:#0F0F12;stop-opacity:0" />
    </radialGradient>
  </defs>
  
  <!-- 基礎星雲背景 -->
  <rect width="1920" height="120" fill="url(#nebulaGradient)"/>
  
  <!-- 星雲雲霧層 -->
  <ellipse cx="384" cy="60" rx="300" ry="80" fill="url(#cosmicCloud1)"/>
  <ellipse cx="1536" cy="60" rx="300" ry="80" fill="url(#cosmicCloud2)"/>
  <ellipse cx="960" cy="60" rx="400" ry="100" fill="url(#cosmicCloud3)"/>
  
  <!-- 像素星星 -->
  <g filter="url(#glow)" opacity="0.8">
    <!-- 小星星 -->
    <rect x="100" y="20" width="2" height="2" fill="#E8E1D3"/>
    <rect x="250" y="35" width="2" height="2" fill="#D4A017"/>
    <rect x="400" y="15" width="2" height="2" fill="#4A90B8"/>
    <rect x="550" y="45" width="2" height="2" fill="#E8E1D3"/>
    <rect x="700" y="25" width="2" height="2" fill="#9B59B6"/>
    <rect x="850" y="40" width="2" height="2" fill="#D4A017"/>
    <rect x="1000" y="30" width="2" height="2" fill="#E8E1D3"/>
    <rect x="1150" y="50" width="2" height="2" fill="#4A90B8"/>
    <rect x="1300" y="20" width="2" height="2" fill="#D4A017"/>
    <rect x="1450" y="35" width="2" height="2" fill="#E8E1D3"/>
    <rect x="1600" y="45" width="2" height="2" fill="#9B59B6"/>
    <rect x="1750" y="25" width="2" height="2" fill="#4A90B8"/>
    <rect x="1850" y="40" width="2" height="2" fill="#E8E1D3"/>
    
    <!-- 中等星星 -->
    <rect x="200" y="55" width="3" height="3" fill="#D4A017"/>
    <rect x="500" y="70" width="3" height="3" fill="#4A90B8"/>
    <rect x="800" y="65" width="3" height="3" fill="#E8E1D3"/>
    <rect x="1100" y="75" width="3" height="3" fill="#9B59B6"/>
    <rect x="1400" y="60" width="3" height="3" fill="#D4A017"/>
    <rect x="1700" y="70" width="3" height="3" fill="#4A90B8"/>
    
    <!-- 大星星（十字型） -->
    <rect x="300" y="90" width="4" height="4" fill="#D4A017"/>
    <rect x="302" y="88" width="1" height="8" fill="#D4A017" opacity="0.6"/>
    <rect x="298" y="92" width="8" height="1" fill="#D4A017" opacity="0.6"/>
    
    <rect x="1200" y="95" width="4" height="4" fill="#4A90B8"/>
    <rect x="1202" y="93" width="1" height="8" fill="#4A90B8" opacity="0.6"/>
    <rect x="1198" y="97" width="8" height="1" fill="#4A90B8" opacity="0.6"/>
  </g>
  
  <!-- 像素掃描線效果 -->
  <g opacity="0.1">
    <line x1="0" y1="20" x2="1920" y2="20" stroke="#E8E1D3" stroke-width="1"/>
    <line x1="0" y1="40" x2="1920" y2="40" stroke="#E8E1D3" stroke-width="1"/>
    <line x1="0" y1="60" x2="1920" y2="60" stroke="#E8E1D3" stroke-width="1"/>
    <line x1="0" y1="80" x2="1920" y2="80" stroke="#E8E1D3" stroke-width="1"/>
    <line x1="0" y1="100" x2="1920" y2="100" stroke="#E8E1D3" stroke-width="1"/>
  </g>
  
  <!-- 底部漸層過渡 -->
  <defs>
    <linearGradient id="fadeBottom" x1="0%" y1="0%" x2="0%" y2="100%">
      <stop offset="0%" style="stop-color:#000000;stop-opacity:0" />
      <stop offset="100%" style="stop-color:#000000;stop-opacity:0.3" />
    </linearGradient>
  </defs>
  <rect y="100" width="1920" height="20" fill="url(#fadeBottom)"/>
</svg>
